<svg width="1834" height="233" viewBox="0 0 1834 233" fill="none" xmlns="http://www.w3.org/2000/svg">
<path d="M5.2174 86.9473C304.817 127.281 914.027 180.366 954.067 70.0347" stroke="#003705" stroke-width="9" stroke-linecap="round"/>
<path d="M738.818 124.039C738.818 124.039 752.57 111.511 743.459 103.088C732.306 92.6956 718.095 107.551 718.095 107.551C718.095 107.551 709.878 96.6048 696.265 102.864C682.652 109.122 690.785 125.898 690.785 125.898C690.785 125.898 676.132 133.617 679.723 148.719C682.638 161.075 696.553 164.712 705.152 154.908C705.152 154.908 707.12 177.434 723.714 176.699C740.371 175.964 735.003 156.068 732.756 149.591C732.756 149.591 752.781 154.999 755.83 139.716C758.878 124.371 742.687 123.093 738.818 124.039Z" fill="#5BDAEF"/>
<path d="M710.881 127.957C704.181 132.253 701.263 139.655 704.363 144.491C707.463 149.327 715.408 149.765 722.108 145.469C728.809 141.174 731.727 133.771 728.627 128.935C725.527 124.1 717.582 123.662 710.881 127.957Z" fill="#F8EE55"/>
<path opacity="0.75" d="M736.763 135.293C736.594 136.361 737.119 137.668 738.13 138.152C739.458 138.817 740.848 139.482 742.176 140.147C741.864 140.216 741.553 140.347 741.241 140.415C741.178 140.416 741.116 140.417 740.992 140.482C741.491 140.348 740.492 140.553 740.304 140.557C740.241 140.558 740.241 140.558 740.178 140.559C740.053 140.561 739.928 140.564 739.802 140.566C739.426 140.572 739.051 140.579 738.675 140.586C737.923 140.599 737.179 141.051 736.878 141.746C736.576 142.378 736.656 143.379 737.229 143.87C738.12 144.607 739.068 145.091 740.199 145.259C741.33 145.427 742.52 145.343 743.643 145.072C745.641 144.661 748.072 143.928 749.231 142.152C750.145 140.695 750.051 138.942 748.9 137.646C748.516 137.214 748.009 136.91 747.503 136.606C747.874 136.348 748.246 136.091 748.553 135.772C749.598 134.626 750.133 132.987 749.668 131.491C748.869 128.873 746.161 128.107 743.655 128.151C742.464 128.173 741.151 128.321 740.096 128.904C739.599 129.164 739.165 129.422 738.733 129.806C738.487 130.061 738.304 130.315 738.12 130.569C737.937 130.823 737.88 131.137 737.823 131.451C737.82 131.326 737.82 131.326 737.761 131.515C737.52 132.084 737.72 132.707 738.042 133.202C737.423 133.652 736.873 134.414 736.763 135.293Z" fill="white"/>
<path opacity="0.75" d="M728.844 116.446C728.917 117.009 729.114 117.506 729.56 117.937C730.389 118.737 731.837 119.087 732.827 118.38C733.26 118.059 733.694 117.801 734.127 117.48C733.638 118.178 733.149 118.876 732.723 119.573C732.173 120.397 732.445 121.583 733.208 122.196C734.035 122.871 735.035 122.728 735.838 122.087C737.383 120.868 738.801 119.527 739.901 117.941C741 116.354 742.089 114.142 741.866 112.203C741.715 110.764 740.692 109.592 739.244 109.242C738.614 109.065 737.989 109.139 737.427 109.274C737.666 108.58 737.841 107.888 738.017 107.195C738.364 105.56 737.261 103.449 735.385 103.67C734.383 103.751 733.449 104.081 732.581 104.597C731.735 102.858 729.03 102.279 727.937 104.242C727.027 105.887 726.242 107.593 725.647 109.359C725.051 111.061 724.46 113.077 724.554 114.83C724.596 117.211 727.493 117.974 728.844 116.446Z" fill="white"/>
<path opacity="0.75" d="M698.561 115.669C699.15 117.038 699.926 118.403 700.826 119.64C701.597 120.754 703.113 121.417 704.352 120.58C705.096 120.128 705.643 119.178 705.69 118.3C707.258 118.397 708.738 117.055 708.33 115.245C708.193 114.558 707.992 113.872 707.916 113.121C708.175 113.555 708.497 114.051 708.755 114.485C708.885 114.733 709.015 114.982 709.145 115.23C709.146 115.293 709.274 115.479 709.275 115.541C709.341 115.728 709.406 115.852 709.41 116.04C709.61 116.726 709.746 117.35 709.947 118.036C710.148 118.784 710.912 119.46 711.725 119.383C712.477 119.37 713.408 118.852 713.519 118.035C713.634 117.469 713.686 116.904 713.676 116.34C713.605 115.84 713.532 115.277 713.461 114.777C713.255 113.778 712.987 112.843 712.532 111.911C711.813 110.232 710.593 108.624 709.194 107.458C708.112 106.538 706.84 105.495 705.342 105.835C703.595 106.242 703.122 107.817 702.963 109.449C702.582 109.206 702.202 108.962 701.762 108.907C700.377 108.556 698.884 109.146 698.154 110.413C696.994 112.125 697.842 113.99 698.561 115.669Z" fill="white"/>
<path opacity="0.75" d="M713.051 162.1C713.835 163.903 714.865 165.452 716.084 166.997C716.661 167.738 717.792 167.906 718.727 167.639C719.946 169.246 722.758 168.758 723.349 166.742C723.585 165.923 723.632 165.045 723.617 164.23C724.065 164.724 724.448 165.155 724.896 165.649C725.598 166.388 726.729 166.556 727.663 166.226C728.659 165.832 729.145 164.946 729.252 163.942C729.401 161.746 729.3 159.617 728.887 157.493C728.68 156.432 728.41 155.371 728.016 154.375C727.623 153.38 727.227 152.259 726.336 151.523C725.127 150.479 723.51 151.197 723.35 152.767C723.298 153.332 723.37 153.894 723.506 154.456C723.573 154.705 723.577 154.956 723.643 155.143C723.644 155.205 723.782 155.892 723.712 155.518C723.716 155.706 723.782 155.892 723.785 156.08C723.463 155.585 723.141 155.089 722.88 154.53C721.974 152.916 719.276 152.714 718.43 154.484C718.249 154.863 718.069 155.305 717.95 155.683C717.442 155.316 716.751 155.203 716.125 155.277C715.997 155.091 715.932 154.967 715.74 154.782C715.227 154.102 714.159 153.933 713.41 154.134C712.599 154.337 711.984 154.975 711.748 155.793C711.031 157.749 712.203 160.235 713.051 162.1Z" fill="white"/>
<path opacity="0.75" d="M690.861 151.277C691.118 151.649 691.436 151.894 691.878 152.074C692.067 152.133 692.194 152.193 692.383 152.253C692.264 152.631 692.084 153.073 692.028 153.45C691.91 153.89 691.917 154.266 691.988 154.704C692.12 155.077 692.314 155.45 692.57 155.759C693.145 156.375 694.09 156.609 694.901 156.407C695.649 156.205 696.398 156.004 697.144 155.677C697.703 155.417 698.263 155.156 698.757 154.771C699.996 153.934 700.977 152.726 701.642 151.398C702.006 150.702 701.929 149.889 701.293 149.399C700.722 148.971 699.781 148.925 699.29 149.497C699.29 149.497 699.29 149.497 699.228 149.561C699.531 148.992 699.896 148.359 700.199 147.789C700.745 146.777 700.658 145.4 699.828 144.537C699.509 144.229 699.129 143.986 698.688 143.868C698.121 143.69 697.182 143.77 696.624 144.093C695.757 144.672 694.89 145.252 693.96 145.832C693.526 146.091 693.093 146.412 692.722 146.669C691.979 147.184 691.172 147.637 690.685 148.398C690.2 149.346 690.22 150.474 690.861 151.277Z" fill="white"/>
<path d="M294.011 100.515C286.493 93.2599 285.069 52.5585 315.148 49.2297C340 46.4594 345.2 73.7701 338.45 86.8066C330.126 102.897 303.779 109.941 294.011 100.515Z" fill="#71CC6C"/>
<path d="M321.506 66.4543C319.589 73.1793 316.442 79.4026 312.648 85.2302C308.854 91.0577 304.118 96.3203 298.671 100.781C295.977 103.098 292.984 104.897 290.109 106.81C286.936 108.321 283.886 110.179 280.529 111.17C278.851 111.723 277.235 112.45 275.554 112.771L270.454 113.909C268.775 114.346 267.03 114.378 265.287 114.525C263.544 114.672 261.801 114.82 260.116 114.908C259.534 114.918 259.003 114.521 258.993 113.939C258.925 113.417 259.325 113.002 259.846 112.818L259.962 112.816C266.572 111.535 273.124 110.313 279.126 107.529C282.189 106.369 285.008 104.632 287.949 103.125C290.65 101.273 293.47 99.5355 295.933 97.3389C300.979 93.1762 305.547 88.324 309.525 83.0168C310.49 81.6614 311.455 80.306 312.36 78.8935C313.266 77.481 314.172 76.0685 314.961 74.6581C316.713 71.776 318.231 68.7817 319.516 65.7916L319.573 65.7324C319.854 65.2037 320.432 64.9607 320.961 65.2422C321.371 65.4094 321.614 65.9869 321.506 66.4543Z" fill="#003705"/>
<path d="M292.12 135.443C283.388 141.179 274.448 180.912 303.389 189.756C327.297 197.083 337.467 171.209 333.25 157.148C328.051 139.794 303.466 127.99 292.12 135.443Z" fill="#71CC6C"/>
<path d="M312.828 174.008C312.191 167.044 310.251 160.346 307.602 153.916C304.953 147.486 301.275 141.438 296.748 136.045C294.531 133.269 291.923 130.946 289.452 128.534C286.614 126.461 283.961 124.07 280.845 122.474C279.3 121.62 277.846 120.606 276.253 119.979L271.453 117.916C269.883 117.175 268.175 116.821 266.489 116.353C264.804 115.885 263.119 115.418 261.478 115.019C260.909 114.901 260.314 115.193 260.196 115.763C260.032 116.264 260.349 116.745 260.826 117.022L260.94 117.046C267.198 119.53 273.411 121.945 278.792 125.792C281.587 127.499 284.036 129.729 286.647 131.755C288.958 134.075 291.407 136.305 293.42 138.92C297.607 143.945 301.197 149.56 304.123 155.512C304.82 157.023 305.517 158.534 306.146 160.09C306.774 161.645 307.402 163.201 307.917 164.734C309.105 167.89 310.041 171.114 310.75 174.291L310.795 174.359C310.974 174.931 311.496 175.277 312.068 175.098C312.502 175.01 312.848 174.487 312.828 174.008Z" fill="#003705"/>
<path d="M445.096 112.61C437.432 105.214 435.981 63.7218 466.644 60.3282C491.979 57.5042 497.279 85.3456 490.399 98.6355C481.913 115.038 455.054 122.219 445.096 112.61Z" fill="#71CC6C"/>
<path d="M473.125 77.8876C471.172 84.7433 467.963 91.0876 464.095 97.0284C460.227 102.969 455.4 108.334 449.846 112.881C447.101 115.243 444.049 117.077 441.118 119.027C437.884 120.568 434.774 122.462 431.352 123.472C429.642 124.036 427.994 124.777 426.28 125.105L421.081 126.265C419.369 126.711 417.59 126.742 415.814 126.893C414.037 127.043 412.26 127.193 410.542 127.283C409.949 127.294 409.408 126.888 409.397 126.295C409.329 125.763 409.736 125.34 410.267 125.153L410.385 125.151C417.124 123.844 423.804 122.598 429.921 119.761C433.044 118.578 435.919 116.807 438.916 115.271C441.67 113.383 444.545 111.612 447.055 109.372C452.199 105.129 456.856 100.182 460.911 94.7719C461.895 93.3902 462.879 92.0085 463.802 90.5686C464.725 89.1286 465.649 87.6887 466.453 86.2509C468.24 83.3127 469.787 80.2602 471.097 77.212L471.155 77.1516C471.442 76.6127 472.031 76.365 472.569 76.6519C472.988 76.8224 473.235 77.4111 473.125 77.8876Z" fill="#003705"/>
<path d="M443.198 149.894C434.296 155.742 425.182 196.247 454.686 205.263C479.059 212.732 489.426 186.355 485.127 172.02C479.828 154.329 454.764 142.296 443.198 149.894Z" fill="#71CC6C"/>
<path d="M464.308 189.208C463.659 182.109 461.681 175.28 458.981 168.726C456.281 162.171 452.531 156.005 447.916 150.507C445.656 147.677 442.997 145.31 440.478 142.85C437.585 140.737 434.88 138.3 431.704 136.673C430.128 135.802 428.647 134.768 427.023 134.129L422.129 132.026C420.529 131.271 418.787 130.91 417.069 130.433C415.351 129.956 413.633 129.479 411.961 129.072C411.38 128.952 410.773 129.25 410.653 129.831C410.487 130.342 410.809 130.832 411.296 131.115L411.412 131.139C417.791 133.671 424.125 136.133 429.611 140.055C432.46 141.796 434.957 144.069 437.618 146.134C439.975 148.499 442.471 150.773 444.524 153.438C448.792 158.561 452.452 164.285 455.434 170.353C456.145 171.893 456.856 173.433 457.496 175.019C458.137 176.605 458.777 178.192 459.302 179.754C460.513 182.972 461.467 186.258 462.19 189.496L462.236 189.566C462.418 190.149 462.951 190.502 463.533 190.319C463.976 190.229 464.328 189.697 464.308 189.208Z" fill="#003705"/>
<path d="M633.442 160.712C626.778 165.321 620.583 196.294 643.187 202.615C661.86 207.852 669.265 187.601 665.735 176.777C661.382 163.419 642.1 154.723 633.442 160.712Z" fill="#71CC6C"/>
<path d="M651.694 193.217C650.875 186.136 648.735 179.356 645.878 172.868C643.022 166.38 639.126 160.305 634.381 154.92C632.053 152.145 629.338 149.841 626.762 147.443C623.819 145.4 621.056 143.028 617.842 141.477C616.246 140.644 614.74 139.646 613.101 139.046L608.159 137.06C606.541 136.344 604.791 136.025 603.062 135.589C601.333 135.154 599.604 134.718 597.923 134.351C597.339 134.245 596.74 134.558 596.634 135.141C596.479 135.655 596.813 136.138 597.307 136.409L597.423 136.43C603.862 138.809 610.252 141.119 615.831 144.908C618.721 146.58 621.271 148.793 623.981 150.794C626.393 153.102 628.944 155.315 631.059 157.931C635.449 162.951 639.244 168.585 642.372 174.58C643.119 176.103 643.866 177.625 644.544 179.196C645.223 180.766 645.901 182.336 646.463 183.885C647.75 187.074 648.783 190.336 649.583 193.556L649.631 193.625C649.827 194.203 650.368 194.543 650.946 194.347C651.386 194.246 651.726 193.705 651.694 193.217Z" fill="#003705"/>
<path d="M627.922 112.994C619.064 107.08 610.251 66.5077 639.821 57.7114C664.249 50.4238 674.42 76.8775 670.014 91.1797C664.583 108.831 639.431 120.677 627.922 112.994Z" fill="#71CC6C"/>
<path d="M649.324 73.8372C648.622 80.9312 646.593 87.7451 643.844 94.2795C641.095 100.814 637.3 106.952 632.644 112.415C630.363 115.228 627.686 117.576 625.149 120.016C622.24 122.108 619.517 124.525 616.33 126.128C614.747 126.988 613.258 128.01 611.629 128.637L606.72 130.704C605.115 131.447 603.37 131.795 601.648 132.259C599.927 132.723 598.205 133.187 596.53 133.582C595.949 133.698 595.344 133.395 595.228 132.813C595.066 132.301 595.392 131.813 595.88 131.534L595.997 131.511C602.395 129.026 608.746 126.612 614.262 122.731C617.124 121.011 619.637 118.757 622.314 116.712C624.688 114.364 627.201 112.109 629.273 109.459C633.58 104.368 637.282 98.6714 640.31 92.6257C641.032 91.091 641.754 89.5562 642.406 87.975C643.059 86.3937 643.711 84.8124 644.247 83.2543C645.482 80.0452 646.461 76.7661 647.208 73.5334L647.254 73.4637C647.441 72.8823 647.976 72.5338 648.557 72.7202C648.999 72.8136 649.348 73.3488 649.324 73.8372Z" fill="#003705"/>
<path d="M814.08 118.784C807.376 110.946 809.814 70.8156 839.686 70.38C864.368 70.0007 866.903 97.3283 859.042 109.503C849.345 124.529 822.791 128.967 814.08 118.784Z" fill="#71CC6C"/>
<path d="M844.248 87.4654C841.731 93.8932 838.051 99.712 833.774 105.081C829.496 110.45 824.346 115.175 818.573 119.044C815.708 121.068 812.596 122.553 809.591 124.162C806.33 125.348 803.158 126.886 799.766 127.543C798.065 127.929 796.408 128.491 794.726 128.648L789.607 129.285C787.916 129.557 786.198 129.423 784.472 129.403C782.745 129.384 781.019 129.364 779.354 129.292C778.781 129.247 778.297 128.807 778.342 128.234C778.325 127.714 778.757 127.345 779.285 127.213L779.4 127.222C786.016 126.586 792.57 126.003 798.73 123.833C801.849 122.982 804.784 121.541 807.816 120.337C810.645 118.772 813.58 117.33 816.207 115.404C821.558 111.789 826.504 107.452 830.913 102.611C831.989 101.37 833.065 100.13 834.088 98.8269C835.112 97.5243 836.135 96.2216 837.043 94.9101C839.037 92.2431 840.811 89.4437 842.355 86.6265L842.417 86.5738C842.743 86.0808 843.334 85.8965 843.827 86.2229C844.214 86.4259 844.398 87.0163 844.248 87.4654Z" fill="#003705"/>
<path d="M815.691 143.143C808.842 150.855 810.533 191.024 840.391 192.014C865.063 192.853 868.105 165.577 860.471 153.258C851.056 138.054 824.588 133.123 815.691 143.143Z" fill="#71CC6C"/>
<path d="M845.34 174.578C842.943 168.104 839.372 162.218 835.195 156.771C831.018 151.323 825.957 146.503 820.256 142.527C817.429 140.451 814.346 138.908 811.371 137.244C808.133 135.997 804.99 134.4 801.611 133.68C799.917 133.263 798.272 132.67 796.592 132.482L791.486 131.75C789.8 131.447 788.08 131.549 786.354 131.536C784.627 131.523 782.901 131.511 781.235 131.552C780.661 131.586 780.169 132.018 780.203 132.591C780.177 133.11 780.602 133.488 781.128 133.629L781.242 133.623C787.846 134.382 794.388 135.087 800.506 137.37C803.609 138.279 806.517 139.775 809.525 141.035C812.325 142.652 815.232 144.148 817.823 146.123C823.106 149.837 827.971 154.265 832.289 159.187C833.342 160.447 834.395 161.708 835.394 163.029C836.392 164.351 837.391 165.672 838.275 167.001C840.219 169.704 841.94 172.536 843.432 175.381L843.493 175.435C843.81 175.934 844.397 176.13 844.896 175.812C845.287 175.617 845.482 175.03 845.34 174.578Z" fill="#003705"/>
<path d="M114.311 80.5755C106.674 73.2065 105.228 31.8655 135.779 28.4844C161.022 25.6706 166.303 53.4104 159.448 66.6518C150.993 82.9946 124.232 90.1494 114.311 80.5755Z" fill="#71CC6C"/>
<path d="M142.237 45.9797C140.291 52.8104 137.094 59.1315 133.24 65.0506C129.386 70.9698 124.576 76.315 119.043 80.8458C116.308 83.1992 113.267 85.0263 110.347 86.9694C107.124 88.5042 104.026 90.3914 100.616 91.3977C98.9125 91.9599 97.271 92.6984 95.563 93.0243L90.3832 94.1803C88.6774 94.6244 86.9051 94.656 85.1349 94.8057C83.3647 94.9555 81.5945 95.1052 79.8823 95.1948C79.2916 95.2053 78.7525 94.8013 78.742 94.2105C78.6734 93.6799 79.0796 93.259 79.6081 93.0723L79.7263 93.0702C86.4399 91.7686 93.0956 90.5271 99.1911 87.7001C102.302 86.5218 105.166 84.757 108.153 83.2264C110.897 81.3455 113.761 79.5807 116.262 77.3496C121.388 73.1216 126.027 68.193 130.068 62.8024C131.048 61.4258 132.028 60.0491 132.948 58.6144C133.868 57.1797 134.788 55.745 135.59 54.3125C137.37 51.3851 138.911 48.3437 140.216 45.3066L140.274 45.2465C140.56 44.7095 141.146 44.4627 141.683 44.7486C142.1 44.9185 142.347 45.505 142.237 45.9797Z" fill="#003705"/>
<path d="M112.42 117.723C103.55 123.549 94.4695 163.907 123.865 172.89C148.15 180.332 158.479 154.051 154.196 139.769C148.915 122.142 123.943 110.153 112.42 117.723Z" fill="#71CC6C"/>
<path d="M133.453 156.894C132.806 149.821 130.835 143.017 128.145 136.486C125.454 129.956 121.718 123.812 117.12 118.334C114.868 115.515 112.219 113.156 109.71 110.705C106.827 108.6 104.132 106.171 100.968 104.551C99.3976 103.683 97.9213 102.653 96.3033 102.016L91.4274 99.9204C89.8334 99.168 88.0976 98.8086 86.3858 98.3334C84.674 97.8583 82.9622 97.3832 81.2963 96.9779C80.7177 96.8581 80.1131 97.1552 79.9933 97.7338C79.8276 98.2426 80.1488 98.7315 80.6335 99.0129L80.7493 99.0368C87.1055 101.56 93.4159 104.013 98.8821 107.92C101.721 109.655 104.209 111.92 106.86 113.977C109.208 116.334 111.695 118.599 113.74 121.255C117.993 126.359 121.639 132.062 124.611 138.108C125.319 139.642 126.027 141.177 126.665 142.757C127.304 144.337 127.942 145.918 128.464 147.474C129.671 150.68 130.622 153.955 131.342 157.181L131.388 157.251C131.569 157.832 132.1 158.183 132.68 158.001C133.121 157.912 133.473 157.381 133.453 156.894Z" fill="#003705"/>
<path d="M231.94 117.616C231.94 117.616 241.045 121.195 245.535 110.748C250.026 100.302 239.207 88.0236 223.701 92.6649C223.701 92.6649 227.884 73.7279 211.241 71.4525C194.597 69.099 189.955 92.8766 189.955 92.8766C189.955 92.8766 165.797 88.7865 162.035 105.066C158.272 121.345 181.767 118.9 181.767 118.9C181.767 118.9 171.846 130.768 180.159 138.025C190.846 147.265 205.08 132.436 205.08 132.436C205.08 132.436 211.744 147.75 224.997 143.539C240.417 138.432 231.94 117.616 231.94 117.616Z" fill="#FF9000"/>
<path d="M191.396 108.301C191.349 113.509 197.103 117.782 204.247 117.846C211.391 117.91 217.22 113.74 217.267 108.533C217.314 103.325 211.56 99.0522 204.416 98.9883C197.272 98.9243 191.443 103.094 191.396 108.301Z" fill="#F8EE55"/>
<path opacity="0.75" d="M210.593 126.882C210.761 127.58 211.006 128.2 211.251 128.819C211.658 129.825 212.297 130.671 213.013 131.515C214.289 133.129 216.026 134.346 217.684 135.563C218.948 136.476 220.811 136.053 221.882 134.943C222.586 135.086 223.363 134.916 223.979 134.516C224.21 134.356 224.441 134.196 224.671 133.958C225.139 134.027 225.608 134.097 226.073 133.933C227.545 133.439 228.459 132.253 228.587 130.692C228.702 128.352 228.423 125.863 227.682 123.615C227.271 122.454 226.86 121.214 226.14 120.213C225.42 119.135 224.622 118.136 223.594 117.297C222.644 116.457 221.315 116.246 220.238 117.045C219.623 117.524 219.322 118.153 219.257 118.855C218.475 118.713 217.618 118.729 216.925 119.209C216.54 119.449 216.157 119.846 215.852 120.241C215.696 120.244 215.619 120.245 215.463 120.248C214.451 120.344 213.451 121.063 212.922 122.008C211.837 122.339 210.914 123.057 210.623 124.231C210.483 125.091 210.42 125.95 210.593 126.882Z" fill="white"/>
<path opacity="0.75" d="M184.588 128.514C184.686 129.604 185.093 130.61 186.117 131.215C186.827 131.67 187.921 131.806 188.771 131.401C188.861 132.101 189.187 132.875 189.741 133.333C190.454 134.022 191.554 134.47 192.482 134.063C194.572 133.247 196.501 132.199 198.189 130.688C198.957 130.051 199.645 129.259 200.254 128.469C200.636 127.994 200.862 127.601 201.088 127.129C201.238 126.814 201.465 126.421 201.536 126.03C201.682 125.481 201.596 125.015 201.509 124.549C201.256 123.462 199.997 122.783 198.91 123.037C198.832 123.038 198.756 123.117 198.678 123.119C198.515 122.732 198.352 122.345 198.037 122.117C197.004 121.044 195.83 120.753 194.585 120.853C194.576 120.386 194.49 119.92 194.249 119.534C193.526 118.3 192.272 117.933 190.872 118.114C189.706 118.29 188.631 119.167 187.788 119.961C187.021 120.676 186.413 121.545 185.883 122.411C184.903 124.3 184.395 126.413 184.588 128.514Z" fill="white"/>
<path opacity="0.75" d="M226.287 110.935C226.212 111.093 226.136 111.25 226.139 111.406C225.997 112.188 226.402 113.038 227.112 113.493C227.664 113.873 228.293 114.173 228.996 114.239C229.7 114.382 230.48 114.446 231.183 114.511C231.964 114.575 232.74 114.406 233.518 114.314C234.218 114.223 234.838 114.057 235.456 113.734C235.843 113.571 236.149 113.254 236.456 113.014C237.07 112.458 237.368 111.673 237.51 110.891C237.575 110.189 237.563 109.487 237.24 108.869C236.996 108.328 236.754 107.865 236.28 107.484C235.488 106.796 234.702 106.42 233.76 106.048C233.288 105.822 232.818 105.675 232.349 105.605C231.567 105.463 230.785 105.321 229.927 105.258C229.068 105.196 228.214 105.367 227.436 105.459L226.663 105.784C226.276 105.947 225.97 106.264 225.741 106.58C225.284 107.134 224.984 107.841 224.997 108.542C225.169 109.474 225.574 110.324 226.287 110.935Z" fill="white"/>
<path opacity="0.75" d="M202.923 90.1511C203.088 90.6937 203.332 91.235 203.652 91.697C204.053 92.3134 204.527 92.6946 205.308 92.7587C206.01 92.8241 206.631 92.6571 207.168 92.1799C207.399 92.0199 207.551 91.7833 207.704 91.6247C207.943 91.9322 208.182 92.2398 208.42 92.4693C209.369 93.2319 210.389 93.6034 211.549 93.1151C211.627 93.1137 211.704 93.0344 211.782 93.033C211.942 93.264 212.022 93.4184 212.259 93.5701C213.049 94.1795 214.375 94.2338 215.063 93.4422C217.737 90.4326 218.356 85.8229 216.346 82.3513C215.462 80.8861 213.43 80.5326 212.127 81.8029C212.049 81.8043 212.051 81.8822 212.052 81.9602L212.051 81.8823C211.32 80.2585 209.51 79.2775 207.804 79.7755C206.407 80.1122 205.57 81.2183 204.967 82.3982C204.438 83.343 204.068 84.4408 203.697 85.4607C203.399 86.2454 203.179 87.0288 203.038 87.8887C202.892 88.4369 202.674 89.2981 202.923 90.1511Z" fill="white"/>
<path opacity="0.75" d="M171.115 107.242C170.884 107.402 170.575 107.563 170.345 107.801C169.499 108.44 168.888 109.152 168.908 110.243C168.925 111.178 169.412 112.261 170.277 112.713C172.165 113.693 174.124 114.281 176.309 114.398C177.323 114.458 178.335 114.362 179.346 114.266C180.434 114.091 181.364 113.762 182.292 113.356C183.296 112.871 183.661 111.461 183.253 110.455C182.928 109.682 182.375 109.302 181.671 109.158C182.675 108.595 183.358 107.569 183.337 106.401C183.324 105.699 183.078 105.002 182.679 104.464C183.917 103.974 184.829 102.633 184.805 101.308C184.794 100.685 184.627 100.064 184.306 99.5243C183.901 98.6742 183.037 98.2998 182.251 97.9241C181.309 97.5512 180.063 97.6513 179.052 97.7473C177.962 97.8447 176.952 98.0186 175.867 98.3497C174.859 98.6794 173.931 99.0857 173.003 99.4919C172.153 99.8968 171.228 100.459 170.617 101.171C169.164 102.756 169.053 105.252 170.561 106.784C170.72 106.937 170.956 107.089 171.115 107.242Z" fill="white"/>
<path d="M546.691 143.515C546.691 143.515 553.231 146.086 556.456 138.582C559.682 131.079 551.911 122.26 540.773 125.594C540.773 125.594 543.778 111.992 531.824 110.357C519.869 108.667 516.534 125.746 516.534 125.746C516.534 125.746 499.183 122.808 496.48 134.501C493.777 146.194 510.653 144.437 510.653 144.437C510.653 144.437 503.527 152.962 509.498 158.174C517.175 164.812 527.398 154.16 527.398 154.16C527.398 154.16 532.185 165.16 541.704 162.135C552.78 158.467 546.691 143.515 546.691 143.515Z" fill="#FF9000"/>
<path d="M517.57 136.825C517.536 140.565 521.669 143.635 526.8 143.681C531.932 143.727 536.119 140.732 536.152 136.991C536.186 133.251 532.053 130.182 526.921 130.136C521.79 130.09 517.603 133.085 517.57 136.825Z" fill="#F8EE55"/>
<path opacity="0.75" d="M531.358 150.171C531.479 150.672 531.655 151.117 531.83 151.562C532.123 152.284 532.582 152.892 533.097 153.499C534.013 154.658 535.26 155.532 536.452 156.406C537.359 157.062 538.697 156.758 539.467 155.96C539.973 156.063 540.53 155.942 540.973 155.654C541.139 155.539 541.305 155.424 541.47 155.253C541.806 155.303 542.143 155.353 542.477 155.235C543.534 154.88 544.191 154.029 544.283 152.907C544.365 151.226 544.165 149.438 543.633 147.824C543.338 146.99 543.042 146.099 542.525 145.381C542.008 144.606 541.435 143.889 540.697 143.286C540.014 142.682 539.06 142.531 538.286 143.105C537.844 143.449 537.628 143.901 537.581 144.405C537.02 144.303 536.404 144.314 535.906 144.659C535.629 144.832 535.355 145.117 535.136 145.401C535.024 145.403 534.968 145.404 534.856 145.406C534.129 145.475 533.411 145.991 533.031 146.67C532.251 146.908 531.589 147.423 531.38 148.267C531.279 148.884 531.234 149.501 531.358 150.171Z" fill="white"/>
<path opacity="0.75" d="M512.68 151.343C512.75 152.126 513.042 152.848 513.778 153.283C514.288 153.61 515.073 153.708 515.684 153.417C515.749 153.92 515.983 154.475 516.38 154.804C516.893 155.299 517.683 155.621 518.349 155.329C519.85 154.742 521.237 153.99 522.449 152.905C523.001 152.447 523.494 151.878 523.932 151.311C524.206 150.97 524.369 150.687 524.531 150.348C524.639 150.122 524.802 149.839 524.853 149.559C524.958 149.165 524.896 148.83 524.834 148.495C524.652 147.715 523.747 147.227 522.967 147.409C522.911 147.41 522.856 147.467 522.8 147.468C522.683 147.19 522.566 146.912 522.339 146.748C521.598 145.978 520.754 145.769 519.86 145.841C519.854 145.505 519.792 145.17 519.619 144.893C519.099 144.007 518.199 143.743 517.193 143.873C516.356 144 515.583 144.629 514.978 145.2C514.427 145.714 513.99 146.337 513.609 146.96C512.906 148.316 512.541 149.834 512.68 151.343Z" fill="white"/>
<path opacity="0.75" d="M542.63 138.717C542.576 138.83 542.522 138.943 542.524 139.055C542.422 139.616 542.713 140.227 543.223 140.554C543.62 140.827 544.071 141.042 544.576 141.089C545.082 141.192 545.642 141.238 546.147 141.285C546.708 141.331 547.266 141.209 547.824 141.144C548.327 141.079 548.773 140.959 549.216 140.727C549.494 140.61 549.714 140.382 549.935 140.21C550.376 139.81 550.59 139.247 550.692 138.685C550.739 138.18 550.73 137.677 550.498 137.233C550.323 136.844 550.149 136.511 549.808 136.237C549.24 135.744 548.675 135.474 547.998 135.206C547.659 135.044 547.322 134.938 546.985 134.888C546.423 134.786 545.862 134.684 545.245 134.639C544.628 134.594 544.015 134.717 543.456 134.783L542.9 135.017C542.622 135.134 542.403 135.362 542.239 135.589C541.91 135.986 541.695 136.494 541.704 136.998C541.828 137.667 542.119 138.278 542.63 138.717Z" fill="white"/>
<path opacity="0.75" d="M525.849 123.788C525.968 124.178 526.143 124.566 526.373 124.898C526.66 125.341 527.001 125.615 527.562 125.661C528.067 125.708 528.512 125.588 528.898 125.245C529.064 125.13 529.173 124.96 529.283 124.846C529.455 125.067 529.627 125.288 529.798 125.453C530.479 126.001 531.212 126.268 532.045 125.917C532.101 125.916 532.156 125.859 532.212 125.858C532.327 126.024 532.385 126.135 532.555 126.244C533.123 126.681 534.075 126.72 534.569 126.152C536.49 123.99 536.935 120.679 535.49 118.186C534.856 117.133 533.396 116.879 532.46 117.792C532.404 117.793 532.405 117.849 532.406 117.905L532.405 117.849C531.881 116.682 530.58 115.978 529.355 116.335C528.352 116.577 527.75 117.372 527.317 118.219C526.938 118.898 526.672 119.686 526.405 120.419C526.191 120.983 526.033 121.545 525.932 122.163C525.827 122.557 525.67 123.175 525.849 123.788Z" fill="white"/>
<path opacity="0.75" d="M503.002 136.064C502.836 136.179 502.614 136.295 502.449 136.466C501.842 136.925 501.403 137.436 501.417 138.22C501.429 138.891 501.779 139.669 502.4 139.994C503.757 140.697 505.164 141.12 506.733 141.204C507.461 141.247 508.188 141.178 508.914 141.109C509.696 140.983 510.364 140.748 511.03 140.456C511.752 140.107 512.014 139.095 511.721 138.372C511.487 137.816 511.09 137.544 510.585 137.441C511.305 137.036 511.796 136.299 511.781 135.46C511.772 134.956 511.595 134.455 511.308 134.069C512.198 133.717 512.852 132.753 512.835 131.802C512.827 131.354 512.708 130.909 512.477 130.521C512.186 129.91 511.565 129.641 511.001 129.371C510.324 129.104 509.43 129.175 508.703 129.244C507.92 129.314 507.195 129.439 506.415 129.677C505.692 129.914 505.025 130.206 504.359 130.498C503.748 130.788 503.083 131.192 502.645 131.704C501.601 132.842 501.521 134.635 502.604 135.735C502.718 135.845 502.888 135.954 503.002 136.064Z" fill="white"/>
<path d="M381.411 118.426C381.411 118.426 392.312 108.495 385.089 101.817C376.248 93.5794 364.982 105.355 364.982 105.355C364.982 105.355 358.469 96.6782 347.678 101.64C336.887 106.601 343.334 119.899 343.334 119.899C343.334 119.899 331.718 126.018 334.565 137.99C336.876 147.785 347.906 150.668 354.722 142.896C354.722 142.896 356.283 160.753 369.437 160.17C382.641 159.587 378.386 143.816 376.605 138.681C376.605 138.681 392.479 142.968 394.896 130.853C397.312 118.689 384.477 117.676 381.411 118.426Z" fill="#5BDAEF"/>
<path d="M359.264 121.532C353.953 124.937 351.64 130.805 354.097 134.639C356.555 138.472 362.853 138.819 368.164 135.414C373.476 132.009 375.789 126.141 373.331 122.308C370.874 118.474 364.576 118.127 359.264 121.532Z" fill="#F8EE55"/>
<path opacity="0.75" d="M379.781 127.347C379.647 128.194 380.063 129.23 380.865 129.613C381.917 130.141 383.02 130.667 384.072 131.195C383.825 131.249 383.578 131.353 383.331 131.407C383.281 131.408 383.232 131.409 383.133 131.46C383.529 131.354 382.737 131.517 382.588 131.52C382.538 131.521 382.538 131.521 382.488 131.521C382.389 131.523 382.29 131.525 382.19 131.527C381.892 131.532 381.595 131.537 381.297 131.543C380.701 131.553 380.111 131.912 379.872 132.462C379.633 132.963 379.697 133.757 380.151 134.146C380.857 134.73 381.609 135.114 382.505 135.247C383.402 135.38 384.344 135.314 385.235 135.099C386.819 134.773 388.746 134.192 389.665 132.785C390.389 131.629 390.315 130.239 389.402 129.212C389.098 128.87 388.696 128.629 388.295 128.388C388.589 128.184 388.883 127.98 389.127 127.727C389.956 126.818 390.38 125.519 390.011 124.333C389.378 122.258 387.231 121.65 385.244 121.686C384.301 121.703 383.259 121.82 382.423 122.282C382.029 122.488 381.685 122.693 381.343 122.997C381.148 123.199 381.002 123.401 380.857 123.602C380.711 123.803 380.666 124.053 380.621 124.302C380.619 124.202 380.619 124.202 380.572 124.352C380.382 124.803 380.539 125.297 380.795 125.69C380.304 126.046 379.868 126.65 379.781 127.347Z" fill="white"/>
<path opacity="0.75" d="M373.504 112.406C373.561 112.853 373.717 113.247 374.071 113.589C374.728 114.223 375.876 114.5 376.661 113.94C377.004 113.685 377.348 113.481 377.691 113.226C377.304 113.779 376.916 114.333 376.578 114.885C376.143 115.539 376.358 116.479 376.963 116.965C377.618 117.5 378.411 117.386 379.048 116.878C380.273 115.912 381.396 114.849 382.268 113.592C383.14 112.334 384.003 110.58 383.826 109.043C383.707 107.903 382.895 106.973 381.748 106.696C381.248 106.555 380.753 106.614 380.308 106.721C380.496 106.171 380.636 105.622 380.775 105.073C381.05 103.777 380.176 102.103 378.688 102.279C377.895 102.343 377.154 102.604 376.466 103.014C375.795 101.635 373.651 101.177 372.785 102.732C372.063 104.037 371.441 105.389 370.969 106.788C370.496 108.138 370.028 109.736 370.103 111.126C370.136 113.013 372.432 113.618 373.504 112.406Z" fill="white"/>
<path opacity="0.75" d="M349.498 111.791C349.965 112.876 350.58 113.958 351.293 114.939C351.905 115.822 353.107 116.347 354.088 115.684C354.678 115.325 355.112 114.573 355.149 113.876C356.392 113.954 357.566 112.889 357.242 111.455C357.133 110.91 356.974 110.366 356.914 109.771C357.119 110.115 357.374 110.508 357.579 110.852C357.682 111.049 357.785 111.246 357.888 111.443C357.889 111.493 357.991 111.64 357.991 111.69C358.044 111.838 358.095 111.936 358.098 112.085C358.257 112.629 358.365 113.124 358.523 113.667C358.683 114.261 359.289 114.796 359.933 114.735C360.529 114.724 361.267 114.314 361.355 113.666C361.446 113.218 361.488 112.77 361.48 112.323C361.423 111.926 361.366 111.48 361.309 111.084C361.146 110.292 360.934 109.551 360.573 108.812C360.003 107.481 359.036 106.206 357.927 105.282C357.069 104.552 356.061 103.726 354.874 103.995C353.488 104.318 353.113 105.567 352.987 106.861C352.686 106.667 352.384 106.474 352.036 106.43C350.938 106.152 349.754 106.62 349.176 107.624C348.256 108.982 348.928 110.46 349.498 111.791Z" fill="white"/>
<path opacity="0.75" d="M360.984 148.597C361.606 150.027 362.422 151.254 363.388 152.479C363.846 153.067 364.742 153.2 365.484 152.988C366.45 154.262 368.679 153.875 369.147 152.277C369.334 151.628 369.372 150.931 369.36 150.286C369.715 150.677 370.019 151.019 370.374 151.41C370.931 151.997 371.827 152.13 372.568 151.868C373.357 151.556 373.742 150.853 373.827 150.057C373.945 148.316 373.865 146.629 373.537 144.945C373.373 144.104 373.16 143.263 372.847 142.474C372.535 141.685 372.221 140.796 371.516 140.212C370.557 139.385 369.275 139.954 369.149 141.198C369.107 141.646 369.164 142.092 369.272 142.538C369.325 142.735 369.329 142.934 369.381 143.082C369.382 143.132 369.491 143.676 369.436 143.379C369.438 143.528 369.491 143.676 369.493 143.825C369.238 143.432 368.983 143.039 368.776 142.596C368.058 141.317 365.919 141.157 365.248 142.56C365.105 142.86 364.962 143.21 364.868 143.51C364.465 143.219 363.917 143.13 363.421 143.188C363.319 143.041 363.268 142.943 363.116 142.796C362.709 142.257 361.862 142.123 361.269 142.283C360.626 142.443 360.138 142.949 359.951 143.598C359.383 145.148 360.312 147.119 360.984 148.597Z" fill="white"/>
<path opacity="0.75" d="M343.394 140.018C343.598 140.312 343.85 140.507 344.2 140.649C344.35 140.696 344.45 140.744 344.6 140.791C344.506 141.091 344.363 141.441 344.319 141.74C344.226 142.09 344.231 142.388 344.287 142.734C344.391 143.03 344.546 143.326 344.749 143.571C345.205 144.059 345.953 144.245 346.596 144.084C347.189 143.924 347.783 143.765 348.374 143.506C348.818 143.299 349.261 143.093 349.653 142.788C350.635 142.124 351.413 141.167 351.94 140.114C352.229 139.562 352.167 138.918 351.664 138.529C351.21 138.189 350.465 138.153 350.075 138.607C350.075 138.607 350.075 138.607 350.027 138.658C350.267 138.206 350.556 137.704 350.796 137.253C351.229 136.45 351.16 135.359 350.502 134.675C350.249 134.431 349.948 134.238 349.598 134.145C349.149 134.004 348.405 134.067 347.962 134.323C347.275 134.782 346.588 135.242 345.851 135.702C345.506 135.907 345.163 136.161 344.869 136.365C344.28 136.773 343.641 137.132 343.254 137.735C342.87 138.487 342.886 139.381 343.394 140.018Z" fill="white"/>
<path d="M994.23 43.0206C991.338 35.9692 979.372 30.1266 970.928 34.9167C973.028 35.3302 975.035 36.0923 976.941 37.344C992.786 48.0321 985.756 57.4439 985.756 57.4439C985.756 57.4439 989.187 56.9482 993.713 57.087C993.964 56.4649 996.858 49.7722 994.23 43.0206Z" fill="#A90E35"/>
<path d="M1000.09 38.779C1000.09 38.779 998.28 27.969 987.622 23.9077C977.312 19.9388 969.776 23.7933 969.26 24.1156C968.693 27.5519 967.261 31.218 963.954 34.272L964.118 35.0614C966.411 34.6368 968.679 34.6357 970.853 34.983C979.364 30.2679 991.338 35.9693 994.155 43.087C996.858 49.7724 993.889 56.5313 993.638 57.1533C998.869 57.3359 1005.61 58.3204 1010.2 62.0055C1010.2 62.0055 1013.97 54.9419 1009.64 47.0223C1005.38 39.1776 1000.09 38.779 1000.09 38.779Z" fill="#D82549"/>
<path d="M997.846 23.5496C997.846 23.5496 993.926 -0.0726871 967.714 11.3383C967.714 11.3383 970.319 17.3092 969.335 24.0494C969.851 23.7272 977.378 20.0138 987.697 23.8415C998.422 27.9778 1000.17 38.7128 1000.17 38.7128C1000.17 38.7128 1005.45 39.1115 1009.71 46.9561C1014.04 54.8757 1010.27 61.9394 1010.27 61.9394C1012.37 63.5571 1013.94 65.6382 1014.83 68.4562C1016.56 73.7351 1013.27 78.7739 1007.33 83.0819C1043.42 60.9476 1020.75 48.4193 1020.75 48.4193C1020.75 48.4193 1027.19 35.9246 1020.83 28.7294C1009.97 16.5787 997.846 23.5496 997.846 23.5496Z" fill="#EA495A"/>
<path d="M969.269 23.9744C970.319 17.3091 967.648 11.2633 967.648 11.2633C967.648 11.2633 960.012 9.86896 945.454 22.9942C925.8 40.621 931.623 68.9663 933.378 76.0889L933.453 76.0227C931.221 67.4536 933.378 57.8105 938.566 50.6932C938.566 50.6932 951.156 37.3043 964.127 34.9203L963.963 34.1308C967.27 31.0768 968.701 27.4107 969.269 23.9744Z" fill="#FF5F72"/>
<path d="M1014.76 68.3812C1013.8 65.6293 1012.23 63.5482 1010.21 61.8643C1005.62 58.1792 998.953 57.1285 993.646 57.0121C989.121 56.8733 985.69 57.369 985.69 57.369C985.69 57.369 992.72 47.9572 976.875 37.2691C974.903 35.9424 972.896 35.1804 970.862 34.8418C968.621 34.4195 966.42 34.4956 964.127 34.9202C951.165 37.1631 938.565 50.6932 938.565 50.6932C933.378 57.8105 931.221 67.4536 933.453 76.0226C936.211 86.3954 945.659 95.1284 964.559 95.379C978.295 95.5219 996.672 90.4974 1007.12 83.1393C1007.19 83.0731 1007.19 83.0731 1007.27 83.0069C1013.19 78.84 1016.56 73.735 1014.76 68.3812Z" fill="#FF798E"/>
<path opacity="0.75" d="M971.647 59.8995C973.382 62.7701 974.085 66.2852 972.754 69.4616C974.748 69.3018 976.808 69.2169 978.859 69.2732C981.832 69.3158 985.012 69.4421 987.448 71.2934C990.091 73.2284 990.944 76.611 989.838 79.5889C987.869 85.0637 980.248 86.8584 975.212 88.1049C969.818 89.4 964.146 89.4735 958.861 87.8706C958.305 87.6945 957.965 87.4609 957.701 87.1611C956.73 86.8175 955.918 86.2004 955.199 85.2348C953.826 83.3786 953.644 80.6043 953.135 78.5182C952.627 76.4322 952.194 74.2799 951.685 72.1939C950.545 67.7307 949.546 63.2763 948.406 58.8132C947.906 56.586 949.757 54.1502 951.967 53.933C959.178 53.0339 967.4 52.9767 971.647 59.8995Z" fill="white"/>
<path d="M1829.38 86.9473C1529.78 127.281 920.575 180.366 880.535 70.0347" stroke="#003705" stroke-width="9" stroke-linecap="round"/>
<path d="M1095.78 124.039C1095.78 124.039 1082.03 111.511 1091.14 103.088C1102.3 92.6956 1116.51 107.551 1116.51 107.551C1116.51 107.551 1124.72 96.6048 1138.34 102.864C1151.95 109.122 1143.82 125.898 1143.82 125.898C1143.82 125.898 1158.47 133.617 1154.88 148.719C1151.96 161.075 1138.05 164.712 1129.45 154.908C1129.45 154.908 1127.48 177.434 1110.89 176.699C1094.23 175.964 1099.6 156.068 1101.85 149.591C1101.85 149.591 1081.82 154.999 1078.77 139.716C1075.72 124.371 1091.91 123.093 1095.78 124.039Z" fill="#5BDAEF"/>
<path d="M1123.72 127.957C1130.42 132.253 1133.34 139.655 1130.24 144.491C1127.14 149.327 1119.19 149.765 1112.49 145.469C1105.79 141.174 1102.87 133.771 1105.97 128.935C1109.08 124.1 1117.02 123.662 1123.72 127.957Z" fill="#F8EE55"/>
<path opacity="0.75" d="M1097.84 135.293C1098.01 136.361 1097.48 137.668 1096.47 138.152C1095.14 138.817 1093.75 139.482 1092.43 140.147C1092.74 140.216 1093.05 140.347 1093.36 140.415C1093.42 140.416 1093.49 140.417 1093.61 140.482C1093.11 140.348 1094.11 140.553 1094.3 140.557C1094.36 140.558 1094.36 140.558 1094.42 140.559C1094.55 140.561 1094.67 140.564 1094.8 140.566C1095.18 140.572 1095.55 140.579 1095.93 140.586C1096.68 140.599 1097.42 141.051 1097.72 141.746C1098.03 142.378 1097.95 143.379 1097.37 143.87C1096.48 144.607 1095.53 145.091 1094.4 145.259C1093.27 145.427 1092.08 145.343 1090.96 145.072C1088.96 144.661 1086.53 143.928 1085.37 142.152C1084.46 140.695 1084.55 138.942 1085.7 137.646C1086.09 137.214 1086.59 136.91 1087.1 136.606C1086.73 136.348 1086.36 136.091 1086.05 135.772C1085 134.626 1084.47 132.987 1084.93 131.491C1085.73 128.873 1088.44 128.107 1090.95 128.151C1092.14 128.173 1093.45 128.321 1094.51 128.904C1095 129.164 1095.44 129.422 1095.87 129.806C1096.11 130.061 1096.3 130.315 1096.48 130.569C1096.66 130.823 1096.72 131.137 1096.78 131.451C1096.78 131.326 1096.78 131.326 1096.84 131.515C1097.08 132.084 1096.88 132.707 1096.56 133.202C1097.18 133.652 1097.73 134.414 1097.84 135.293Z" fill="white"/>
<path opacity="0.75" d="M1105.76 116.446C1105.68 117.009 1105.49 117.506 1105.04 117.937C1104.21 118.737 1102.76 119.087 1101.77 118.38C1101.34 118.059 1100.91 117.801 1100.47 117.48C1100.96 118.178 1101.45 118.876 1101.88 119.573C1102.43 120.397 1102.16 121.583 1101.39 122.196C1100.57 122.871 1099.57 122.728 1098.76 122.087C1097.22 120.868 1095.8 119.527 1094.7 117.941C1093.6 116.354 1092.51 114.142 1092.74 112.203C1092.89 110.764 1093.91 109.592 1095.36 109.242C1095.99 109.065 1096.61 109.139 1097.17 109.274C1096.94 108.58 1096.76 107.888 1096.58 107.195C1096.24 105.56 1097.34 103.449 1099.22 103.67C1100.22 103.751 1101.15 104.081 1102.02 104.597C1102.87 102.858 1105.57 102.279 1106.66 104.242C1107.57 105.887 1108.36 107.593 1108.95 109.359C1109.55 111.061 1110.14 113.077 1110.05 114.83C1110.01 117.211 1107.11 117.974 1105.76 116.446Z" fill="white"/>
<path opacity="0.75" d="M1136.04 115.669C1135.45 117.038 1134.68 118.403 1133.78 119.64C1133 120.754 1131.49 121.417 1130.25 120.58C1129.51 120.128 1128.96 119.178 1128.91 118.3C1127.34 118.397 1125.86 117.055 1126.27 115.245C1126.41 114.558 1126.61 113.872 1126.69 113.121C1126.43 113.555 1126.1 114.051 1125.85 114.485C1125.72 114.733 1125.59 114.982 1125.46 115.23C1125.46 115.293 1125.33 115.479 1125.33 115.541C1125.26 115.728 1125.2 115.852 1125.19 116.04C1124.99 116.726 1124.86 117.35 1124.66 118.036C1124.45 118.784 1123.69 119.46 1122.88 119.383C1122.12 119.37 1121.19 118.852 1121.08 118.035C1120.97 117.469 1120.92 116.904 1120.93 116.34C1121 115.84 1121.07 115.277 1121.14 114.777C1121.35 113.778 1121.61 112.843 1122.07 111.911C1122.79 110.232 1124.01 108.624 1125.41 107.458C1126.49 106.538 1127.76 105.495 1129.26 105.835C1131.01 106.242 1131.48 107.817 1131.64 109.449C1132.02 109.206 1132.4 108.962 1132.84 108.907C1134.22 108.556 1135.72 109.146 1136.45 110.413C1137.61 112.125 1136.76 113.99 1136.04 115.669Z" fill="white"/>
<path opacity="0.75" d="M1121.55 162.1C1120.77 163.903 1119.74 165.452 1118.52 166.997C1117.94 167.738 1116.81 167.906 1115.87 167.639C1114.66 169.246 1111.84 168.758 1111.25 166.742C1111.02 165.923 1110.97 165.045 1110.98 164.23C1110.54 164.724 1110.15 165.155 1109.71 165.649C1109 166.388 1107.87 166.556 1106.94 166.226C1105.94 165.832 1105.46 164.946 1105.35 163.942C1105.2 161.746 1105.3 159.617 1105.72 157.493C1105.92 156.432 1106.19 155.371 1106.59 154.375C1106.98 153.38 1107.38 152.259 1108.27 151.523C1109.47 150.479 1111.09 151.197 1111.25 152.767C1111.3 153.332 1111.23 153.894 1111.1 154.456C1111.03 154.705 1111.02 154.956 1110.96 155.143C1110.96 155.205 1110.82 155.892 1110.89 155.518C1110.89 155.706 1110.82 155.892 1110.82 156.08C1111.14 155.585 1111.46 155.089 1111.72 154.53C1112.63 152.916 1115.33 152.714 1116.17 154.484C1116.35 154.863 1116.53 155.305 1116.65 155.683C1117.16 155.316 1117.85 155.203 1118.48 155.277C1118.6 155.091 1118.67 154.967 1118.86 154.782C1119.37 154.102 1120.44 153.933 1121.19 154.134C1122 154.337 1122.62 154.975 1122.85 155.793C1123.57 157.749 1122.4 160.235 1121.55 162.1Z" fill="white"/>
<path opacity="0.75" d="M1143.74 151.277C1143.48 151.649 1143.17 151.894 1142.72 152.074C1142.53 152.133 1142.41 152.193 1142.22 152.253C1142.34 152.631 1142.52 153.073 1142.57 153.45C1142.69 153.89 1142.68 154.266 1142.61 154.704C1142.48 155.077 1142.29 155.45 1142.03 155.759C1141.46 156.375 1140.51 156.609 1139.7 156.407C1138.95 156.205 1138.2 156.004 1137.46 155.677C1136.9 155.417 1136.34 155.156 1135.84 154.771C1134.61 153.934 1133.62 152.726 1132.96 151.398C1132.6 150.702 1132.67 149.889 1133.31 149.399C1133.88 148.971 1134.82 148.925 1135.31 149.497C1135.31 149.497 1135.31 149.497 1135.37 149.561C1135.07 148.992 1134.71 148.359 1134.4 147.789C1133.86 146.777 1133.94 145.4 1134.77 144.537C1135.09 144.229 1135.47 143.986 1135.91 143.868C1136.48 143.69 1137.42 143.77 1137.98 144.093C1138.84 144.672 1139.71 145.252 1140.64 145.832C1141.08 146.091 1141.51 146.412 1141.88 146.669C1142.62 147.184 1143.43 147.637 1143.92 148.398C1144.4 149.346 1144.38 150.474 1143.74 151.277Z" fill="white"/>
<path d="M1540.59 100.515C1548.11 93.2599 1549.53 52.5585 1519.45 49.2297C1494.6 46.4594 1489.4 73.7701 1496.15 86.8066C1504.48 102.897 1530.82 109.941 1540.59 100.515Z" fill="#71CC6C"/>
<path d="M1513.1 66.4543C1515.01 73.1793 1518.16 79.4026 1521.95 85.2302C1525.75 91.0577 1530.48 96.3203 1535.93 100.781C1538.62 103.098 1541.62 104.897 1544.49 106.81C1547.67 108.321 1550.72 110.179 1554.07 111.17C1555.75 111.723 1557.37 112.45 1559.05 112.771L1564.15 113.909C1565.83 114.346 1567.57 114.378 1569.31 114.525C1571.06 114.672 1572.8 114.82 1574.49 114.908C1575.07 114.918 1575.6 114.521 1575.61 113.939C1575.68 113.417 1575.28 113.002 1574.76 112.818L1574.64 112.816C1568.03 111.535 1561.48 110.313 1555.48 107.529C1552.41 106.369 1549.59 104.632 1546.65 103.125C1543.95 101.273 1541.13 99.5355 1538.67 97.3389C1533.62 93.1762 1529.05 88.324 1525.08 83.0168C1524.11 81.6614 1523.15 80.306 1522.24 78.8935C1521.34 77.481 1520.43 76.0685 1519.64 74.6581C1517.89 71.776 1516.37 68.7817 1515.09 65.7916L1515.03 65.7324C1514.75 65.2037 1514.17 64.9607 1513.64 65.2422C1513.23 65.4094 1512.99 65.9869 1513.1 66.4543Z" fill="#003705"/>
<path d="M1542.48 135.443C1551.21 141.179 1560.15 180.912 1531.21 189.756C1507.3 197.083 1497.13 171.209 1501.35 157.148C1506.55 139.794 1531.14 127.99 1542.48 135.443Z" fill="#71CC6C"/>
<path d="M1521.77 174.008C1522.41 167.044 1524.35 160.346 1527 153.916C1529.65 147.486 1533.33 141.438 1537.85 136.045C1540.07 133.269 1542.68 130.946 1545.15 128.534C1547.99 126.461 1550.64 124.07 1553.76 122.474C1555.3 121.62 1556.76 120.606 1558.35 119.979L1563.15 117.916C1564.72 117.175 1566.43 116.821 1568.11 116.353C1569.8 115.885 1571.48 115.418 1573.12 115.019C1573.69 114.901 1574.29 115.193 1574.41 115.763C1574.57 116.264 1574.25 116.745 1573.78 117.022L1573.66 117.046C1567.4 119.53 1561.19 121.945 1555.81 125.792C1553.01 127.499 1550.57 129.729 1547.96 131.755C1545.64 134.075 1543.19 136.305 1541.18 138.92C1536.99 143.945 1533.4 149.56 1530.48 155.512C1529.78 157.023 1529.08 158.534 1528.46 160.09C1527.83 161.645 1527.2 163.201 1526.68 164.734C1525.5 167.89 1524.56 171.114 1523.85 174.291L1523.81 174.359C1523.63 174.931 1523.11 175.277 1522.53 175.098C1522.1 175.01 1521.75 174.487 1521.77 174.008Z" fill="#003705"/>
<path d="M1389.51 112.61C1397.17 105.214 1398.62 63.7218 1367.96 60.3282C1342.62 57.5042 1337.32 85.3456 1344.2 98.6355C1352.69 115.038 1379.55 122.219 1389.51 112.61Z" fill="#71CC6C"/>
<path d="M1361.48 77.8876C1363.43 84.7433 1366.64 91.0876 1370.51 97.0284C1374.37 102.969 1379.2 108.334 1384.76 112.881C1387.5 115.243 1390.55 117.077 1393.48 119.027C1396.72 120.568 1399.83 122.462 1403.25 123.472C1404.96 124.036 1406.61 124.777 1408.32 125.105L1413.52 126.265C1415.23 126.711 1417.01 126.742 1418.79 126.893C1420.56 127.043 1422.34 127.193 1424.06 127.283C1424.65 127.294 1425.19 126.888 1425.2 126.295C1425.27 125.763 1424.87 125.34 1424.33 125.153L1424.22 125.151C1417.48 123.844 1410.8 122.598 1404.68 119.761C1401.56 118.578 1398.68 116.807 1395.69 115.271C1392.93 113.383 1390.06 111.612 1387.55 109.372C1382.4 105.129 1377.75 100.182 1373.69 94.7719C1372.71 93.3902 1371.72 92.0085 1370.8 90.5686C1369.88 89.1286 1368.95 87.6887 1368.15 86.2509C1366.36 83.3127 1364.81 80.2602 1363.51 77.212L1363.45 77.1516C1363.16 76.6127 1362.57 76.365 1362.03 76.6519C1361.61 76.8224 1361.37 77.4111 1361.48 77.8876Z" fill="#003705"/>
<path d="M1391.4 149.894C1400.31 155.742 1409.42 196.247 1379.92 205.263C1355.54 212.732 1345.18 186.355 1349.47 172.02C1354.77 154.329 1379.84 142.296 1391.4 149.894Z" fill="#71CC6C"/>
<path d="M1370.29 189.208C1370.94 182.109 1372.92 175.28 1375.62 168.726C1378.32 162.171 1382.07 156.005 1386.69 150.507C1388.95 147.677 1391.6 145.31 1394.12 142.85C1397.02 140.737 1399.72 138.3 1402.9 136.673C1404.47 135.802 1405.95 134.768 1407.58 134.129L1412.47 132.026C1414.07 131.271 1415.81 130.91 1417.53 130.433C1419.25 129.956 1420.97 129.479 1422.64 129.072C1423.22 128.952 1423.83 129.25 1423.95 129.831C1424.11 130.342 1423.79 130.832 1423.31 131.115L1423.19 131.139C1416.81 133.671 1410.48 136.133 1404.99 140.055C1402.14 141.796 1399.64 144.069 1396.98 146.134C1394.63 148.499 1392.13 150.773 1390.08 153.438C1385.81 158.561 1382.15 164.285 1379.17 170.353C1378.46 171.893 1377.75 173.433 1377.11 175.019C1376.46 176.605 1375.82 178.192 1375.3 179.754C1374.09 182.972 1373.13 186.258 1372.41 189.496L1372.37 189.566C1372.18 190.149 1371.65 190.502 1371.07 190.319C1370.63 190.229 1370.27 189.697 1370.29 189.208Z" fill="#003705"/>
<path d="M1201.16 160.712C1207.82 165.321 1214.02 196.294 1191.41 202.615C1172.74 207.852 1165.34 187.601 1168.87 176.777C1173.22 163.419 1192.5 154.723 1201.16 160.712Z" fill="#71CC6C"/>
<path d="M1182.91 193.217C1183.73 186.136 1185.87 179.356 1188.72 172.868C1191.58 166.38 1195.48 160.305 1200.22 154.92C1202.55 152.145 1205.26 149.841 1207.84 147.443C1210.78 145.4 1213.55 143.028 1216.76 141.477C1218.36 140.644 1219.86 139.646 1221.5 139.046L1226.44 137.06C1228.06 136.344 1229.81 136.025 1231.54 135.589C1233.27 135.154 1235 134.718 1236.68 134.351C1237.26 134.245 1237.86 134.558 1237.97 135.141C1238.12 135.655 1237.79 136.138 1237.29 136.409L1237.18 136.43C1230.74 138.809 1224.35 141.119 1218.77 144.908C1215.88 146.58 1213.33 148.793 1210.62 150.794C1208.21 153.102 1205.66 155.315 1203.54 157.931C1199.15 162.951 1195.36 168.585 1192.23 174.58C1191.48 176.103 1190.74 177.625 1190.06 179.196C1189.38 180.766 1188.7 182.336 1188.14 183.885C1186.85 187.074 1185.82 190.336 1185.02 193.556L1184.97 193.625C1184.77 194.203 1184.23 194.543 1183.66 194.347C1183.22 194.246 1182.88 193.705 1182.91 193.217Z" fill="#003705"/>
<path d="M1206.68 112.994C1215.54 107.08 1224.35 66.5077 1194.78 57.7114C1170.35 50.4238 1160.18 76.8775 1164.59 91.1797C1170.02 108.831 1195.17 120.677 1206.68 112.994Z" fill="#71CC6C"/>
<path d="M1185.28 73.8372C1185.98 80.9312 1188.01 87.7451 1190.76 94.2795C1193.51 100.814 1197.3 106.952 1201.96 112.415C1204.24 115.228 1206.92 117.576 1209.45 120.016C1212.36 122.108 1215.08 124.525 1218.27 126.128C1219.85 126.988 1221.34 128.01 1222.97 128.637L1227.88 130.704C1229.49 131.447 1231.23 131.795 1232.95 132.259C1234.67 132.723 1236.4 133.187 1238.07 133.582C1238.65 133.698 1239.26 133.395 1239.37 132.813C1239.54 132.301 1239.21 131.813 1238.72 131.534L1238.6 131.511C1232.21 129.026 1225.86 126.612 1220.34 122.731C1217.48 121.011 1214.96 118.757 1212.29 116.712C1209.91 114.364 1207.4 112.109 1205.33 109.459C1201.02 104.368 1197.32 98.6714 1194.29 92.6257C1193.57 91.091 1192.85 89.5562 1192.2 87.975C1191.54 86.3937 1190.89 84.8124 1190.35 83.2543C1189.12 80.0452 1188.14 76.7661 1187.39 73.5334L1187.35 73.4637C1187.16 72.8823 1186.63 72.5338 1186.04 72.7202C1185.6 72.8136 1185.25 73.3488 1185.28 73.8372Z" fill="#003705"/>
<path d="M1020.52 118.784C1027.23 110.946 1024.79 70.8156 994.916 70.38C970.233 70.0007 967.699 97.3283 975.56 109.503C985.257 124.529 1011.81 128.967 1020.52 118.784Z" fill="#71CC6C"/>
<path d="M990.353 87.4654C992.871 93.8932 996.55 99.712 1000.83 105.081C1005.11 110.45 1010.26 115.175 1016.03 119.044C1018.89 121.068 1022.01 122.553 1025.01 124.162C1028.27 125.348 1031.44 126.886 1034.84 127.543C1036.54 127.929 1038.19 128.491 1039.88 128.648L1044.99 129.285C1046.69 129.557 1048.4 129.423 1050.13 129.403C1051.86 129.384 1053.58 129.364 1055.25 129.292C1055.82 129.247 1056.3 128.807 1056.26 128.234C1056.28 127.714 1055.84 127.345 1055.32 127.213L1055.2 127.222C1048.59 126.586 1042.03 126.003 1035.87 123.833C1032.75 122.982 1029.82 121.541 1026.79 120.337C1023.96 118.772 1021.02 117.33 1018.39 115.404C1013.04 111.789 1008.1 107.452 1003.69 102.611C1002.61 101.37 1001.54 100.13 1000.51 98.8269C999.49 97.5243 998.467 96.2216 997.558 94.9101C995.565 92.2431 993.791 89.4437 992.246 86.6265L992.185 86.5738C991.858 86.0808 991.268 85.8965 990.775 86.2229C990.388 86.4259 990.203 87.0163 990.353 87.4654Z" fill="#003705"/>
<path d="M1018.91 143.143C1025.76 150.855 1024.07 191.024 994.21 192.014C969.539 192.853 966.496 165.577 974.13 153.258C983.546 138.054 1010.01 133.123 1018.91 143.143Z" fill="#71CC6C"/>
<path d="M989.261 174.578C991.659 168.104 995.229 162.218 999.407 156.771C1003.58 151.323 1008.64 146.503 1014.35 142.527C1017.17 140.451 1020.26 138.908 1023.23 137.244C1026.47 135.997 1029.61 134.4 1032.99 133.68C1034.68 133.263 1036.33 132.67 1038.01 132.482L1043.12 131.75C1044.8 131.447 1046.52 131.549 1048.25 131.536C1049.97 131.523 1051.7 131.511 1053.37 131.552C1053.94 131.586 1054.43 132.018 1054.4 132.591C1054.43 133.11 1054 133.488 1053.47 133.629L1053.36 133.623C1046.76 134.382 1040.21 135.087 1034.1 137.37C1030.99 138.279 1028.09 139.775 1025.08 141.035C1022.28 142.652 1019.37 144.148 1016.78 146.123C1011.5 149.837 1006.63 154.265 1002.31 159.187C1001.26 160.447 1000.21 161.708 999.208 163.029C998.209 164.351 997.21 165.672 996.326 167.001C994.383 169.704 992.661 172.536 991.17 175.381L991.109 175.435C990.792 175.934 990.205 176.13 989.706 175.812C989.315 175.617 989.119 175.03 989.261 174.578Z" fill="#003705"/>
<path d="M1720.29 80.5755C1727.93 73.2065 1729.37 31.8655 1698.82 28.4844C1673.58 25.6706 1668.3 53.4104 1675.15 66.6518C1683.61 82.9946 1710.37 90.1494 1720.29 80.5755Z" fill="#71CC6C"/>
<path d="M1692.36 45.9797C1694.31 52.8104 1697.51 59.1315 1701.36 65.0506C1705.22 70.9698 1710.02 76.315 1715.56 80.8458C1718.29 83.1992 1721.33 85.0263 1724.25 86.9694C1727.48 88.5042 1730.58 90.3914 1733.99 91.3977C1735.69 91.9599 1737.33 92.6984 1739.04 93.0243L1744.22 94.1803C1745.92 94.6244 1747.7 94.656 1749.47 94.8057C1751.24 94.9555 1753.01 95.1052 1754.72 95.1948C1755.31 95.2053 1755.85 94.8013 1755.86 94.2105C1755.93 93.6799 1755.52 93.259 1754.99 93.0723L1754.88 93.0702C1748.16 91.7686 1741.51 90.5271 1735.41 87.7001C1732.3 86.5218 1729.43 84.757 1726.45 83.2264C1723.7 81.3455 1720.84 79.5807 1718.34 77.3496C1713.21 73.1216 1708.57 68.193 1704.53 62.8024C1703.55 61.4258 1702.57 60.0491 1701.65 58.6144C1700.73 57.1797 1699.81 55.745 1699.01 54.3125C1697.23 51.3851 1695.69 48.3437 1694.39 45.3066L1694.33 45.2465C1694.04 44.7095 1693.45 44.4627 1692.92 44.7486C1692.5 44.9185 1692.25 45.505 1692.36 45.9797Z" fill="#003705"/>
<path d="M1722.18 117.723C1731.05 123.549 1740.13 163.907 1710.74 172.89C1686.45 180.332 1676.12 154.051 1680.41 139.769C1685.69 122.142 1710.66 110.153 1722.18 117.723Z" fill="#71CC6C"/>
<path d="M1701.15 156.894C1701.8 149.821 1703.77 143.017 1706.46 136.486C1709.15 129.956 1712.88 123.812 1717.48 118.334C1719.73 115.515 1722.38 113.156 1724.89 110.705C1727.77 108.6 1730.47 106.171 1733.63 104.551C1735.2 103.683 1736.68 102.653 1738.3 102.016L1743.17 99.9204C1744.77 99.168 1746.5 98.8086 1748.22 98.3334C1749.93 97.8583 1751.64 97.3832 1753.3 96.9779C1753.88 96.8581 1754.49 97.1552 1754.61 97.7338C1754.77 98.2426 1754.45 98.7315 1753.97 99.0129L1753.85 99.0368C1747.5 101.56 1741.19 104.013 1735.72 107.92C1732.88 109.655 1730.39 111.92 1727.74 113.977C1725.39 116.334 1722.91 118.599 1720.86 121.255C1716.61 126.359 1712.96 132.062 1709.99 138.108C1709.28 139.642 1708.57 141.177 1707.94 142.757C1707.3 144.337 1706.66 145.918 1706.14 147.474C1704.93 150.68 1703.98 153.955 1703.26 157.181L1703.21 157.251C1703.03 157.832 1702.5 158.183 1701.92 158.001C1701.48 157.912 1701.13 157.381 1701.15 156.894Z" fill="#003705"/>
<path d="M1602.66 117.616C1602.66 117.616 1593.56 121.195 1589.07 110.748C1584.58 100.302 1595.4 88.0236 1610.9 92.6649C1610.9 92.6649 1606.72 73.7279 1623.36 71.4525C1640 69.099 1644.65 92.8766 1644.65 92.8766C1644.65 92.8766 1668.8 88.7865 1672.57 105.066C1676.33 121.345 1652.83 118.9 1652.83 118.9C1652.83 118.9 1662.76 130.768 1654.44 138.025C1643.76 147.265 1629.52 132.436 1629.52 132.436C1629.52 132.436 1622.86 147.75 1609.6 143.539C1594.18 138.432 1602.66 117.616 1602.66 117.616Z" fill="#FF9000"/>
<path d="M1643.21 108.301C1643.25 113.509 1637.5 117.782 1630.35 117.846C1623.21 117.91 1617.38 113.74 1617.33 108.533C1617.29 103.325 1623.04 99.0522 1630.19 98.9883C1637.33 98.9243 1643.16 103.094 1643.21 108.301Z" fill="#F8EE55"/>
<path opacity="0.75" d="M1624.01 126.882C1623.84 127.58 1623.6 128.2 1623.35 128.819C1622.94 129.825 1622.3 130.671 1621.59 131.515C1620.31 133.129 1618.58 134.346 1616.92 135.563C1615.65 136.476 1613.79 136.053 1612.72 134.943C1612.02 135.086 1611.24 134.916 1610.62 134.516C1610.39 134.356 1610.16 134.196 1609.93 133.958C1609.46 134.027 1608.99 134.097 1608.53 133.933C1607.06 133.439 1606.14 132.253 1606.01 130.692C1605.9 128.352 1606.18 125.863 1606.92 123.615C1607.33 122.454 1607.74 121.214 1608.46 120.213C1609.18 119.135 1609.98 118.136 1611.01 117.297C1611.96 116.457 1613.29 116.246 1614.36 117.045C1614.98 117.524 1615.28 118.153 1615.34 118.855C1616.13 118.713 1616.98 118.729 1617.68 119.209C1618.06 119.449 1618.44 119.846 1618.75 120.241C1618.91 120.244 1618.98 120.245 1619.14 120.248C1620.15 120.344 1621.15 121.063 1621.68 122.008C1622.77 122.339 1623.69 123.057 1623.98 124.231C1624.12 125.091 1624.18 125.95 1624.01 126.882Z" fill="white"/>
<path opacity="0.75" d="M1650.01 128.514C1649.92 129.604 1649.51 130.61 1648.48 131.215C1647.77 131.67 1646.68 131.806 1645.83 131.401C1645.74 132.101 1645.41 132.875 1644.86 133.333C1644.15 134.022 1643.05 134.47 1642.12 134.063C1640.03 133.247 1638.1 132.199 1636.41 130.688C1635.64 130.051 1634.96 129.259 1634.35 128.469C1633.97 127.994 1633.74 127.601 1633.51 127.129C1633.36 126.814 1633.14 126.421 1633.07 126.03C1632.92 125.481 1633.01 125.015 1633.09 124.549C1633.35 123.462 1634.6 122.783 1635.69 123.037C1635.77 123.038 1635.85 123.117 1635.92 123.119C1636.09 122.732 1636.25 122.345 1636.57 122.117C1637.6 121.044 1638.77 120.753 1640.02 120.853C1640.03 120.386 1640.11 119.92 1640.35 119.534C1641.08 118.3 1642.33 117.933 1643.73 118.114C1644.9 118.29 1645.97 119.167 1646.81 119.961C1647.58 120.676 1648.19 121.545 1648.72 122.411C1649.7 124.3 1650.21 126.413 1650.01 128.514Z" fill="white"/>
<path opacity="0.75" d="M1608.31 110.935C1608.39 111.093 1608.47 111.25 1608.46 111.406C1608.6 112.188 1608.2 113.038 1607.49 113.493C1606.94 113.873 1606.31 114.173 1605.61 114.239C1604.9 114.382 1604.12 114.446 1603.42 114.511C1602.64 114.575 1601.86 114.406 1601.08 114.314C1600.38 114.223 1599.76 114.057 1599.15 113.734C1598.76 113.571 1598.45 113.254 1598.15 113.014C1597.53 112.458 1597.23 111.673 1597.09 110.891C1597.03 110.189 1597.04 109.487 1597.36 108.869C1597.61 108.328 1597.85 107.865 1598.32 107.484C1599.11 106.796 1599.9 106.42 1600.84 106.048C1601.31 105.822 1601.78 105.675 1602.25 105.605C1603.03 105.463 1603.82 105.321 1604.67 105.258C1605.53 105.196 1606.39 105.367 1607.17 105.459L1607.94 105.784C1608.33 105.947 1608.63 106.264 1608.86 106.58C1609.32 107.134 1609.62 107.841 1609.6 108.542C1609.43 109.474 1609.03 110.324 1608.31 110.935Z" fill="white"/>
<path opacity="0.75" d="M1631.68 90.1511C1631.51 90.6937 1631.27 91.235 1630.95 91.697C1630.55 92.3134 1630.07 92.6946 1629.29 92.7587C1628.59 92.8241 1627.97 92.6571 1627.43 92.1799C1627.2 92.0199 1627.05 91.7833 1626.9 91.6247C1626.66 91.9322 1626.42 92.2398 1626.18 92.4693C1625.23 93.2319 1624.21 93.6034 1623.05 93.1151C1622.97 93.1137 1622.9 93.0344 1622.82 93.033C1622.66 93.264 1622.58 93.4184 1622.34 93.5701C1621.55 94.1795 1620.23 94.2338 1619.54 93.4422C1616.86 90.4326 1616.25 85.8229 1618.26 82.3513C1619.14 80.8861 1621.17 80.5326 1622.47 81.8029C1622.55 81.8043 1622.55 81.8822 1622.55 81.9602L1622.55 81.8823C1623.28 80.2585 1625.09 79.2775 1626.8 79.7755C1628.19 80.1122 1629.03 81.2183 1629.63 82.3982C1630.16 83.343 1630.53 84.4408 1630.91 85.4607C1631.2 86.2454 1631.42 87.0288 1631.56 87.8887C1631.71 88.4369 1631.93 89.2981 1631.68 90.1511Z" fill="white"/>
<path opacity="0.75" d="M1663.49 107.242C1663.72 107.402 1664.03 107.563 1664.26 107.801C1665.1 108.44 1665.71 109.152 1665.69 110.243C1665.68 111.178 1665.19 112.261 1664.32 112.713C1662.44 113.693 1660.48 114.281 1658.29 114.398C1657.28 114.458 1656.27 114.362 1655.26 114.266C1654.17 114.091 1653.24 113.762 1652.31 113.356C1651.31 112.871 1650.94 111.461 1651.35 110.455C1651.67 109.682 1652.23 109.302 1652.93 109.158C1651.93 108.595 1651.24 107.569 1651.26 106.401C1651.28 105.699 1651.52 105.002 1651.92 104.464C1650.68 103.974 1649.77 102.633 1649.8 101.308C1649.81 100.685 1649.97 100.064 1650.3 99.5243C1650.7 98.6742 1651.57 98.2998 1652.35 97.9241C1653.29 97.5512 1654.54 97.6513 1655.55 97.7473C1656.64 97.8447 1657.65 98.0186 1658.73 98.3497C1659.74 98.6794 1660.67 99.0857 1661.6 99.4919C1662.45 99.8968 1663.37 100.459 1663.98 101.171C1665.44 102.756 1665.55 105.252 1664.04 106.784C1663.88 106.937 1663.65 107.089 1663.49 107.242Z" fill="white"/>
<path d="M1287.91 143.515C1287.91 143.515 1281.37 146.086 1278.15 138.582C1274.92 131.079 1282.69 122.26 1293.83 125.594C1293.83 125.594 1290.82 111.992 1302.78 110.357C1314.73 108.667 1318.07 125.746 1318.07 125.746C1318.07 125.746 1335.42 122.808 1338.12 134.501C1340.82 146.194 1323.95 144.437 1323.95 144.437C1323.95 144.437 1331.07 152.962 1325.1 158.174C1317.43 164.812 1307.2 154.16 1307.2 154.16C1307.2 154.16 1302.42 165.16 1292.9 162.135C1281.82 158.467 1287.91 143.515 1287.91 143.515Z" fill="#FF9000"/>
<path d="M1317.03 136.825C1317.07 140.565 1312.93 143.635 1307.8 143.681C1302.67 143.727 1298.48 140.732 1298.45 136.991C1298.42 133.251 1302.55 130.182 1307.68 130.136C1312.81 130.09 1317 133.085 1317.03 136.825Z" fill="#F8EE55"/>
<path opacity="0.75" d="M1303.24 150.171C1303.12 150.672 1302.95 151.117 1302.77 151.562C1302.48 152.284 1302.02 152.892 1301.51 153.499C1300.59 154.658 1299.34 155.532 1298.15 156.406C1297.24 157.062 1295.9 156.758 1295.13 155.96C1294.63 156.063 1294.07 155.942 1293.63 155.654C1293.46 155.539 1293.3 155.424 1293.13 155.253C1292.8 155.303 1292.46 155.353 1292.12 155.235C1291.07 154.88 1290.41 154.029 1290.32 152.907C1290.24 151.226 1290.44 149.438 1290.97 147.824C1291.26 146.99 1291.56 146.099 1292.08 145.381C1292.59 144.606 1293.17 143.889 1293.91 143.286C1294.59 142.682 1295.54 142.531 1296.32 143.105C1296.76 143.449 1296.97 143.901 1297.02 144.405C1297.58 144.303 1298.2 144.314 1298.7 144.659C1298.97 144.832 1299.25 145.117 1299.47 145.401C1299.58 145.403 1299.63 145.404 1299.75 145.406C1300.47 145.475 1301.19 145.991 1301.57 146.67C1302.35 146.908 1303.01 147.423 1303.22 148.267C1303.32 148.884 1303.37 149.501 1303.24 150.171Z" fill="white"/>
<path opacity="0.75" d="M1321.92 151.343C1321.85 152.126 1321.56 152.848 1320.82 153.283C1320.31 153.61 1319.53 153.708 1318.92 153.417C1318.85 153.92 1318.62 154.475 1318.22 154.804C1317.71 155.299 1316.92 155.621 1316.25 155.329C1314.75 154.742 1313.37 153.99 1312.15 152.905C1311.6 152.447 1311.11 151.878 1310.67 151.311C1310.4 150.97 1310.23 150.687 1310.07 150.348C1309.96 150.122 1309.8 149.839 1309.75 149.559C1309.64 149.165 1309.71 148.83 1309.77 148.495C1309.95 147.715 1310.85 147.227 1311.63 147.409C1311.69 147.41 1311.75 147.467 1311.8 147.468C1311.92 147.19 1312.04 146.912 1312.26 146.748C1313 145.978 1313.85 145.769 1314.74 145.841C1314.75 145.505 1314.81 145.17 1314.98 144.893C1315.5 144.007 1316.4 143.743 1317.41 143.873C1318.25 144 1319.02 144.629 1319.62 145.2C1320.17 145.714 1320.61 146.337 1320.99 146.96C1321.7 148.316 1322.06 149.834 1321.92 151.343Z" fill="white"/>
<path opacity="0.75" d="M1291.97 138.717C1292.03 138.83 1292.08 138.943 1292.08 139.055C1292.18 139.616 1291.89 140.227 1291.38 140.554C1290.98 140.827 1290.53 141.042 1290.03 141.089C1289.52 141.192 1288.96 141.238 1288.45 141.285C1287.89 141.331 1287.34 141.209 1286.78 141.144C1286.27 141.079 1285.83 140.959 1285.39 140.727C1285.11 140.61 1284.89 140.382 1284.67 140.21C1284.23 139.81 1284.01 139.247 1283.91 138.685C1283.86 138.18 1283.87 137.677 1284.1 137.233C1284.28 136.844 1284.45 136.511 1284.79 136.237C1285.36 135.744 1285.93 135.474 1286.6 135.206C1286.94 135.044 1287.28 134.938 1287.62 134.888C1288.18 134.786 1288.74 134.684 1289.36 134.639C1289.97 134.594 1290.59 134.717 1291.15 134.783L1291.7 135.017C1291.98 135.134 1292.2 135.362 1292.36 135.589C1292.69 135.986 1292.91 136.494 1292.9 136.998C1292.77 137.667 1292.48 138.278 1291.97 138.717Z" fill="white"/>
<path opacity="0.75" d="M1308.75 123.788C1308.63 124.178 1308.46 124.566 1308.23 124.898C1307.94 125.341 1307.6 125.615 1307.04 125.661C1306.54 125.708 1306.09 125.588 1305.7 125.245C1305.54 125.13 1305.43 124.96 1305.32 124.846C1305.15 125.067 1304.98 125.288 1304.8 125.453C1304.12 126.001 1303.39 126.268 1302.56 125.917C1302.5 125.916 1302.45 125.859 1302.39 125.858C1302.27 126.024 1302.22 126.135 1302.05 126.244C1301.48 126.681 1300.53 126.72 1300.03 126.152C1298.11 123.99 1297.67 120.679 1299.11 118.186C1299.75 117.133 1301.21 116.879 1302.14 117.792C1302.2 117.793 1302.2 117.849 1302.2 117.905L1302.2 117.849C1302.72 116.682 1304.02 115.978 1305.25 116.335C1306.25 116.577 1306.85 117.372 1307.28 118.219C1307.66 118.898 1307.93 119.686 1308.2 120.419C1308.41 120.983 1308.57 121.545 1308.67 122.163C1308.77 122.557 1308.93 123.175 1308.75 123.788Z" fill="white"/>
<path opacity="0.75" d="M1331.6 136.064C1331.77 136.179 1331.99 136.295 1332.15 136.466C1332.76 136.925 1333.2 137.436 1333.18 138.22C1333.17 138.891 1332.82 139.669 1332.2 139.994C1330.85 140.697 1329.44 141.12 1327.87 141.204C1327.14 141.247 1326.41 141.178 1325.69 141.109C1324.91 140.983 1324.24 140.748 1323.57 140.456C1322.85 140.107 1322.59 139.095 1322.88 138.372C1323.11 137.816 1323.51 137.544 1324.02 137.441C1323.3 137.036 1322.81 136.299 1322.82 135.46C1322.83 134.956 1323.01 134.455 1323.29 134.069C1322.4 133.717 1321.75 132.753 1321.77 131.802C1321.77 131.354 1321.89 130.909 1322.13 130.521C1322.42 129.91 1323.04 129.641 1323.6 129.371C1324.28 129.104 1325.17 129.175 1325.9 129.244C1326.68 129.314 1327.41 129.439 1328.19 129.677C1328.91 129.914 1329.58 130.206 1330.24 130.498C1330.85 130.788 1331.52 131.192 1331.96 131.704C1333 132.842 1333.08 134.635 1332 135.735C1331.88 135.845 1331.71 135.954 1331.6 136.064Z" fill="white"/>
<path d="M1453.19 118.426C1453.19 118.426 1442.29 108.495 1449.51 101.817C1458.35 93.5794 1469.62 105.355 1469.62 105.355C1469.62 105.355 1476.13 96.6782 1486.92 101.64C1497.71 106.601 1491.27 119.899 1491.27 119.899C1491.27 119.899 1502.88 126.018 1500.04 137.99C1497.73 147.785 1486.7 150.668 1479.88 142.896C1479.88 142.896 1478.32 160.753 1465.16 160.17C1451.96 159.587 1456.22 143.816 1458 138.681C1458 138.681 1442.12 142.968 1439.71 130.853C1437.29 118.689 1450.12 117.676 1453.19 118.426Z" fill="#5BDAEF"/>
<path d="M1475.34 121.532C1480.65 124.937 1482.96 130.805 1480.5 134.639C1478.05 138.472 1471.75 138.819 1466.44 135.414C1461.13 132.009 1458.81 126.141 1461.27 122.308C1463.73 118.474 1470.03 118.127 1475.34 121.532Z" fill="#F8EE55"/>
<path opacity="0.75" d="M1454.82 127.347C1454.95 128.194 1454.54 129.23 1453.74 129.613C1452.68 130.141 1451.58 130.667 1450.53 131.195C1450.78 131.249 1451.02 131.353 1451.27 131.407C1451.32 131.408 1451.37 131.409 1451.47 131.46C1451.07 131.354 1451.86 131.517 1452.01 131.52C1452.06 131.521 1452.06 131.521 1452.11 131.521C1452.21 131.523 1452.31 131.525 1452.41 131.527C1452.71 131.532 1453.01 131.537 1453.31 131.543C1453.9 131.553 1454.49 131.912 1454.73 132.462C1454.97 132.963 1454.9 133.757 1454.45 134.146C1453.75 134.73 1452.99 135.114 1452.1 135.247C1451.2 135.38 1450.26 135.314 1449.37 135.099C1447.78 134.773 1445.86 134.192 1444.94 132.785C1444.21 131.629 1444.29 130.239 1445.2 129.212C1445.5 128.87 1445.91 128.629 1446.31 128.388C1446.01 128.184 1445.72 127.98 1445.47 127.727C1444.65 126.818 1444.22 125.519 1444.59 124.333C1445.22 122.258 1447.37 121.65 1449.36 121.686C1450.3 121.703 1451.34 121.82 1452.18 122.282C1452.57 122.488 1452.92 122.693 1453.26 122.997C1453.45 123.199 1453.6 123.401 1453.74 123.602C1453.89 123.803 1453.94 124.053 1453.98 124.302C1453.98 124.202 1453.98 124.202 1454.03 124.352C1454.22 124.803 1454.06 125.297 1453.81 125.69C1454.3 126.046 1454.73 126.65 1454.82 127.347Z" fill="white"/>
<path opacity="0.75" d="M1461.1 112.406C1461.04 112.853 1460.88 113.247 1460.53 113.589C1459.87 114.223 1458.73 114.5 1457.94 113.94C1457.6 113.685 1457.25 113.481 1456.91 113.226C1457.3 113.779 1457.69 114.333 1458.02 114.885C1458.46 115.539 1458.24 116.479 1457.64 116.965C1456.98 117.5 1456.19 117.386 1455.55 116.878C1454.33 115.912 1453.21 114.849 1452.33 113.592C1451.46 112.334 1450.6 110.58 1450.78 109.043C1450.89 107.903 1451.71 106.973 1452.85 106.696C1453.35 106.555 1453.85 106.614 1454.29 106.721C1454.11 106.171 1453.97 105.622 1453.83 105.073C1453.55 103.777 1454.43 102.103 1455.91 102.279C1456.71 102.343 1457.45 102.604 1458.14 103.014C1458.81 101.635 1460.95 101.177 1461.82 102.732C1462.54 104.037 1463.16 105.389 1463.63 106.788C1464.11 108.138 1464.57 109.736 1464.5 111.126C1464.47 113.013 1462.17 113.618 1461.1 112.406Z" fill="white"/>
<path opacity="0.75" d="M1485.1 111.791C1484.64 112.876 1484.02 113.958 1483.31 114.939C1482.7 115.822 1481.5 116.347 1480.51 115.684C1479.92 115.325 1479.49 114.573 1479.45 113.876C1478.21 113.954 1477.04 112.889 1477.36 111.455C1477.47 110.91 1477.63 110.366 1477.69 109.771C1477.48 110.115 1477.23 110.508 1477.02 110.852C1476.92 111.049 1476.82 111.246 1476.71 111.443C1476.71 111.493 1476.61 111.64 1476.61 111.69C1476.56 111.838 1476.51 111.936 1476.5 112.085C1476.35 112.629 1476.24 113.124 1476.08 113.667C1475.92 114.261 1475.31 114.796 1474.67 114.735C1474.07 114.724 1473.33 114.314 1473.25 113.666C1473.16 113.218 1473.11 112.77 1473.12 112.323C1473.18 111.926 1473.24 111.48 1473.29 111.084C1473.46 110.292 1473.67 109.551 1474.03 108.812C1474.6 107.481 1475.57 106.206 1476.67 105.282C1477.53 104.552 1478.54 103.726 1479.73 103.995C1481.11 104.318 1481.49 105.567 1481.61 106.861C1481.92 106.667 1482.22 106.474 1482.57 106.43C1483.66 106.152 1484.85 106.62 1485.43 107.624C1486.35 108.982 1485.67 110.46 1485.1 111.791Z" fill="white"/>
<path opacity="0.75" d="M1473.62 148.597C1473 150.027 1472.18 151.254 1471.21 152.479C1470.76 153.067 1469.86 153.2 1469.12 152.988C1468.15 154.262 1465.92 153.875 1465.45 152.277C1465.27 151.628 1465.23 150.931 1465.24 150.286C1464.89 150.677 1464.58 151.019 1464.23 151.41C1463.67 151.997 1462.77 152.13 1462.03 151.868C1461.24 151.556 1460.86 150.853 1460.77 150.057C1460.66 148.316 1460.74 146.629 1461.06 144.945C1461.23 144.104 1461.44 143.263 1461.75 142.474C1462.07 141.685 1462.38 140.796 1463.09 140.212C1464.04 139.385 1465.33 139.954 1465.45 141.198C1465.49 141.646 1465.44 142.092 1465.33 142.538C1465.28 142.735 1465.27 142.934 1465.22 143.082C1465.22 143.132 1465.11 143.676 1465.17 143.379C1465.16 143.528 1465.11 143.676 1465.11 143.825C1465.36 143.432 1465.62 143.039 1465.83 142.596C1466.54 141.317 1468.68 141.157 1469.35 142.56C1469.5 142.86 1469.64 143.21 1469.73 143.51C1470.14 143.219 1470.68 143.13 1471.18 143.188C1471.28 143.041 1471.33 142.943 1471.49 142.796C1471.89 142.257 1472.74 142.123 1473.33 142.283C1473.98 142.443 1474.46 142.949 1474.65 143.598C1475.22 145.148 1474.29 147.119 1473.62 148.597Z" fill="white"/>
<path opacity="0.75" d="M1491.21 140.018C1491 140.312 1490.75 140.507 1490.4 140.649C1490.25 140.696 1490.15 140.744 1490 140.791C1490.1 141.091 1490.24 141.441 1490.28 141.74C1490.38 142.09 1490.37 142.388 1490.31 142.734C1490.21 143.03 1490.06 143.326 1489.85 143.571C1489.4 144.059 1488.65 144.245 1488.01 144.084C1487.41 143.924 1486.82 143.765 1486.23 143.506C1485.78 143.299 1485.34 143.093 1484.95 142.788C1483.97 142.124 1483.19 141.167 1482.66 140.114C1482.37 139.562 1482.43 138.918 1482.94 138.529C1483.39 138.189 1484.14 138.153 1484.53 138.607C1484.53 138.607 1484.53 138.607 1484.57 138.658C1484.33 138.206 1484.05 137.704 1483.81 137.253C1483.37 136.45 1483.44 135.359 1484.1 134.675C1484.35 134.431 1484.65 134.238 1485 134.145C1485.45 134.004 1486.2 134.067 1486.64 134.323C1487.33 134.782 1488.01 135.242 1488.75 135.702C1489.1 135.907 1489.44 136.161 1489.73 136.365C1490.32 136.773 1490.96 137.132 1491.35 137.735C1491.73 138.487 1491.72 139.381 1491.21 140.018Z" fill="white"/>
<path d="M840.371 43.0206C843.264 35.9692 855.229 30.1266 863.673 34.9167C861.574 35.3302 859.566 36.0923 857.66 37.344C841.816 48.0321 848.846 57.4439 848.846 57.4439C848.846 57.4439 845.415 56.9482 840.889 57.087C840.638 56.4649 837.743 49.7722 840.371 43.0206Z" fill="#A90E35"/>
<path d="M834.512 38.779C834.512 38.779 836.321 27.969 846.98 23.9077C857.29 19.9388 864.826 23.7933 865.342 24.1156C865.909 27.5519 867.341 31.218 870.647 34.272L870.484 35.0614C868.19 34.6368 865.923 34.6357 863.748 34.983C855.238 30.2679 843.264 35.9693 840.446 43.087C837.743 49.7724 840.713 56.5313 840.964 57.1533C835.733 57.3359 828.992 58.3204 824.403 62.0055C824.403 62.0055 820.636 54.9419 824.962 47.0223C829.223 39.1776 834.512 38.779 834.512 38.779Z" fill="#D82549"/>
<path d="M836.756 23.5496C836.756 23.5496 840.676 -0.0726871 866.888 11.3383C866.888 11.3383 864.282 17.3092 865.267 24.0494C864.751 23.7272 857.224 20.0138 846.905 23.8415C836.18 27.9778 834.437 38.7128 834.437 38.7128C834.437 38.7128 829.148 39.1115 824.887 46.9561C820.561 54.8757 824.328 61.9394 824.328 61.9394C822.232 63.5571 820.661 65.6382 819.773 68.4562C818.046 73.7351 821.334 78.7739 827.268 83.0819C791.182 60.9476 813.855 48.4193 813.855 48.4193C813.855 48.4193 807.413 35.9246 813.768 28.7294C824.634 16.5787 836.756 23.5496 836.756 23.5496Z" fill="#EA495A"/>
<path d="M865.333 23.9744C864.282 17.3091 866.954 11.2633 866.954 11.2633C866.954 11.2633 874.59 9.86896 889.147 22.9942C908.802 40.621 902.978 68.9663 901.223 76.0889L901.148 76.0227C903.38 67.4536 901.224 57.8105 896.036 50.6932C896.036 50.6932 883.446 37.3043 870.475 34.9203L870.638 34.1308C867.332 31.0768 865.9 27.4107 865.333 23.9744Z" fill="#FF5F72"/>
<path d="M819.839 68.3812C820.802 65.6293 822.373 63.5482 824.394 61.8643C828.984 58.1792 835.649 57.1285 840.955 57.0121C845.481 56.8733 848.912 57.369 848.912 57.369C848.912 57.369 841.882 47.9572 857.726 37.2691C859.699 35.9424 861.706 35.1804 863.739 34.8418C865.98 34.4195 868.181 34.4956 870.475 34.9202C883.437 37.1631 896.036 50.6932 896.036 50.6932C901.224 57.8105 903.38 67.4536 901.148 76.0226C898.391 86.3954 888.943 95.1284 870.042 95.379C856.307 95.5219 837.93 90.4974 827.484 83.1393C827.409 83.0731 827.409 83.0731 827.334 83.0069C821.408 78.84 818.046 73.735 819.839 68.3812Z" fill="#FF798E"/>
<path opacity="0.75" d="M862.955 59.8995C861.22 62.7701 860.517 66.2852 861.847 69.4616C859.854 69.3018 857.794 69.2169 855.743 69.2732C852.77 69.3158 849.59 69.4421 847.154 71.2934C844.511 73.2284 843.658 76.611 844.763 79.5889C846.732 85.0637 854.353 86.8584 859.39 88.1049C864.783 89.4 870.456 89.4735 875.741 87.8706C876.296 87.6945 876.636 87.4609 876.901 87.1611C877.872 86.8175 878.683 86.2004 879.403 85.2348C880.776 83.3786 880.958 80.6043 881.466 78.5182C881.975 76.4322 882.408 74.2799 882.916 72.1939C884.056 67.7307 885.056 63.2763 886.196 58.8132C886.695 56.586 884.844 54.1502 882.634 53.933C875.423 53.0339 867.201 52.9767 862.955 59.8995Z" fill="white"/>
</svg>
